<?xml version="1.0" encoding="UTF-8"?>
<svg width="134px" height="226px" viewBox="0 0 134 226" version="1.1" xmlns="http://www.w3.org/2000/svg" xmlns:xlink="http://www.w3.org/1999/xlink">
    <!-- Generator: Sketch 52.6 (67491) - http://www.bohemiancoding.com/sketch -->
    <title>Group 5</title>
    <desc>Created with Sketch.</desc>
    <defs>
        <linearGradient x1="100%" y1="50%" x2="0%" y2="50%" id="linearGradient-1">
            <stop stop-color="#CC066F" offset="0%"></stop>
            <stop stop-color="#791E97" offset="100%"></stop>
        </linearGradient>
        <linearGradient x1="19.3785864%" y1="19.8332668%" x2="83.0046635%" y2="95.8097887%" id="linearGradient-2">
            <stop stop-color="#F82E94" offset="0%"></stop>
            <stop stop-color="#FF9E33" offset="100%"></stop>
        </linearGradient>
    </defs>
    <g id="Page-1" stroke="none" stroke-width="1" fill="none" fill-rule="evenodd">
        <g id="01_Contact_Landingpage" transform="translate(-1306.000000, -108.000000)">
            <g id="Group-16" transform="translate(1297.000000, 49.000000)">
                <g id="Group-5">
                    <path d="M202.374594,142.449552 C190.504675,146.927491 193.018305,192.313265 204.422737,241.477301 C200.140257,259.762217 194.740607,278.606876 188.409983,296.005534 C164.949436,360.562484 140.697561,380.759853 122.310823,374.08959 L122.264274,374.08959 C103.877536,367.326037 98.2451428,336.213692 121.659141,271.703387 C143.676678,211.111279 184.639538,145.061683 203.119374,142.262971 C202.88663,142.309616 202.607338,142.402907 202.421143,142.449552 L202.374594,142.449552 Z M206.424332,142.542842 C218.294251,147.020781 215.734073,192.313265 204.422737,241.477301 C193.064854,192.313265 190.551223,146.927491 202.421143,142.449552 L202.467692,142.449552 C202.746984,142.402907 202.88663,142.309616 203.212471,142.262971 C204.32964,142.123035 205.40026,142.216326 206.377783,142.542842 L206.424332,142.542842 Z" id="Combined-Shape" fill="url(#linearGradient-1)" transform="translate(160.200000, 258.750000) scale(-1, 1) rotate(-150.000000) translate(-160.200000, -258.750000) "></path>
                    <path d="M124.970223,248.450476 C124.601555,248.368572 124.199453,248.276163 123.763916,248.116227 L123.717027,248.116227 L123.763916,248.116227 C123.239017,247.92129 122.724481,247.706701 122.220672,247.472257 C122.413518,247.560384 122.607918,247.645574 122.803852,247.727838 C107.019308,241.760683 88.8294976,217.988012 71.1071838,168.85077 C64.6364544,151.094171 59.1972906,132.059097 54.9772497,113.544884 C66.4651388,63.5896527 69.0440527,17.5645488 57.0403808,13.0662104 L57.0403808,13.0188595 L56.9934915,13.0188595 C56.0088153,12.687403 54.9303604,12.5927011 53.6643481,12.7347539 C69.1378314,9.46753973 106.508638,66.1466029 130.750428,124.625001 C130.738154,124.653783 130.725885,124.682567 130.713622,124.711352 C133.457262,131.15515 135.925005,137.69107 138.346502,144.133585 C161.884952,209.525219 156.258231,241.250342 137.73694,248.068876 L137.690051,248.068876 C137.127379,248.30563 136.564707,248.447683 135.955145,248.684438 C135.814477,248.684438 135.673809,248.731789 135.486252,248.731789 C135.111137,248.873842 134.782912,248.873842 134.360908,248.921193 C133.985793,248.968543 133.657568,249.063245 133.376231,249.110596 C133.048006,249.110596 132.813559,249.157947 132.485334,249.157947 C132.250887,249.252649 131.922662,249.252649 131.641326,249.3 L130.469092,249.3 L130.140867,249.3 C128.968633,249.252649 127.890178,249.110596 126.624166,248.826491 L126.436609,248.826491 C126.014605,248.77914 125.545711,248.637087 125.123707,248.495034 C125.073054,248.479689 125.021853,248.464896 124.970223,248.450476 Z M56.6922052,13.9629634 C68.4591977,18.4967939 65.921219,64.3546 54.7079672,114.13228 C43.4485704,64.3546 40.9567366,18.4023391 52.7237292,13.8685086 L52.7698743,13.8685086 C53.0467447,13.8212812 53.1851799,13.7268264 53.5081954,13.679599 C54.615677,13.5379168 55.6770136,13.6323716 56.6460601,13.9629634 L56.6922052,13.9629634 Z" id="Combined-Shape" fill="url(#linearGradient-2)" transform="translate(99.450000, 130.950000) scale(-1, 1) rotate(-25.000000) translate(-99.450000, -130.950000) "></path>
                </g>
            </g>
        </g>
    </g>
</svg>