<?xml version="1.0" encoding="UTF-8"?>
<svg width="480px" height="85px" viewBox="0 0 480 85" version="1.1" xmlns="http://www.w3.org/2000/svg" xmlns:xlink="http://www.w3.org/1999/xlink">
    <!-- Generator: Sketch 60 (88103) - https://sketch.com -->
    <title>Group 9</title>
    <desc>Created with Sketch.</desc>
    <defs>
        <linearGradient x1="100%" y1="50%" x2="0%" y2="50%" id="linearGradient-1">
            <stop stop-color="#CC066F" offset="0%"></stop>
            <stop stop-color="#791E97" offset="100%"></stop>
        </linearGradient>
    </defs>
    <g id="Page-1" stroke="none" stroke-width="1" fill="none" fill-rule="evenodd">
        <g id="Contact" transform="translate(-480.000000, -194.000000)" fill="url(#linearGradient-1)" fill-rule="nonzero">
            <g id="Group-9" transform="translate(480.000000, 194.000000)">
                <path d="M9.25555556,85 C9.78888889,84.4 10.4222222,83.7666667 11.1555556,83.1 C11.6222222,83.0333333 12.0722222,83 12.5055556,83 L12.5055556,83 L13.7555556,83 C15.7555556,81.9333333 17.8055556,81.1666667 19.9055556,80.7 C22.0055556,80.2333333 24.1222222,79.8 26.2555556,79.4 C28.9222222,78.8666667 31.5722222,78.4166667 34.2055556,78.05 C36.8388889,77.6833333 39.5222222,77.4333333 42.2555556,77.3 C43.7888889,77.2333333 45.3555556,77.1833333 46.9555556,77.15 C48.5555556,77.1166667 50.1222222,77.3666667 51.6555556,77.9 C52.1222222,78.0333333 52.5888889,78.1166667 53.0555556,78.15 C53.5222222,78.1833333 53.9555556,78.2333333 54.3555556,78.3 C54.7555556,77.6333333 54.7222222,77.0666667 54.2555556,76.6 C53.4555556,75.8666667 52.6555556,75.15 51.8555556,74.45 C51.0555556,73.75 50.2888889,73.1 49.5555556,72.5 C48.8222222,72.3666667 48.1722222,72.2166667 47.6055556,72.05 C47.0388889,71.8833333 46.4888889,71.7 45.9555556,71.5 C45.0888889,71.2333333 44.2055556,71.0166667 43.3055556,70.85 C42.4055556,70.6833333 41.5222222,70.6666667 40.6555556,70.8 C39.5222222,70.9333333 38.3888889,70.9333333 37.2555556,70.8 C36.1222222,70.6666667 34.9888889,70.6666667 33.8555556,70.8 C33.3888889,70.8 32.9555556,70.8166667 32.5555556,70.85 C32.1555556,70.8833333 31.7222222,70.9333333 31.2555556,71 C30.8555556,71 30.4388889,71.0333333 30.0055556,71.1 C29.5722222,71.1666667 29.1555556,71.2333333 28.7555556,71.3 C26.4222222,71.5666667 24.0722222,71.8166667 21.7055556,72.05 C19.3388889,72.2833333 16.9888889,72.6 14.6555556,73 C14.3222222,73.1333333 14.0555556,73.2 13.8555556,73.2 C13.6555556,73.2 13.4222222,73.0666667 13.1555556,72.8 C13.4888889,71.1333333 13.7722222,69.4666667 14.0055556,67.8 C14.2388889,66.1333333 14.5888889,64.4666667 15.0555556,62.8 C16.1222222,59.0666667 17.2555556,55.35 18.4555556,51.65 C19.6555556,47.95 20.7888889,44.2 21.8555556,40.4 C22.5222222,38.3333333 23.2388889,36.2666667 24.0055556,34.2 C24.7722222,32.1333333 25.2888889,30.0333333 25.5555556,27.9 C25.6888889,27.5666667 25.8055556,27.3 25.9055556,27.1 C26.0055556,26.9 26.0888889,26.7 26.1555556,26.5 C26.4888889,25.8333333 26.7722222,25.15 27.0055556,24.45 C27.2388889,23.75 27.5222222,23.1 27.8555556,22.5 C28.6555556,20.7 29.4388889,18.9 30.2055556,17.1 C30.9722222,15.3 31.7555556,13.5333333 32.5555556,11.8 C32.8888889,11.0666667 33.2055556,10.3333333 33.5055556,9.6 C33.8055556,8.86666667 33.9555556,8.13333333 33.9555556,7.4 C33.8888889,7.26666667 33.8555556,7.13333333 33.8555556,7 C33.8555556,6.86666667 33.8222222,6.76666667 33.7555556,6.7 C32.7555556,5.76666667 31.7722222,4.91666667 30.8055556,4.15 C29.8388889,3.38333333 28.8555556,2.56666667 27.8555556,1.7 C27.2555556,1.5 26.7888889,1.4 26.4555556,1.4 C25.9222222,1.2 25.3555556,1.06666667 24.7555556,1 C23.6222222,1.73333333 22.6055556,2.58333333 21.7055556,3.55 C20.8055556,4.51666667 19.9555556,5.56666667 19.1555556,6.7 C17.1555556,9.7 15.3555556,12.8333333 13.7555556,16.1 C12.1555556,19.3666667 10.7888889,22.7666667 9.65555556,26.3 C7.52222222,32.5666667 5.63888889,38.9333333 4.00555556,45.4 C2.37222222,51.8666667 1.15555556,58.4333333 0.355555556,65.1 C0.0888888889,67.3666667 -0.0277777778,69.6 0.00555555556,71.8 C0.0388888889,74 0.455555556,76.1666667 1.25555556,78.3 C1.12222222,78.5 1.03888889,78.6833333 1.00555556,78.85 C0.972222222,79.0166667 0.888888889,79.2 0.755555556,79.4 C0.688888889,79.6666667 0.655555556,79.9 0.655555556,80.1 C0.655555556,80.3 0.622222222,80.5 0.555555556,80.7 C1.22222222,81.6333333 1.85555556,82.3666667 2.45555556,82.9 C3.05555556,83.4333333 3.68888889,83.8666667 4.35555556,84.2 C5.02222222,84.5333333 5.73888889,84.75 6.50555556,84.85 C7.27222222,84.95 8.18888889,85 9.25555556,85 Z M56.8055556,78.85 C58.9388889,78.8166667 61.1055556,78.5 63.3055556,77.9 C63.7722222,77.7 64.3722222,77.3666667 65.1055556,76.9 L65.1055556,76.9 L67.3055556,74.9 C68.0388889,74.2333333 68.7722222,73.5333333 69.5055556,72.8 C73.3055556,68.2666667 76.8388889,63.4666667 80.1055556,58.4 C80.3722222,58.0666667 80.6555556,57.6833333 80.9555556,57.25 C81.2555556,56.8166667 81.3722222,56.4333333 81.3055556,56.1 C81.2388889,55.5 81.3388889,55.0333333 81.6055556,54.7 C81.8722222,54.3666667 82.0722222,54 82.2055556,53.6 C81.8055556,53.2666667 81.4722222,53 81.2055556,52.8 C80.9388889,52.6 80.6222222,52.4333333 80.2555556,52.3 C79.8888889,52.1666667 79.4555556,52.0333333 78.9555556,51.9 C78.4555556,51.7666667 77.7388889,51.6 76.8055556,51.4 L76.8055556,51.4 L75.6055556,53.2 C74.1388889,55.4 72.6888889,57.5166667 71.2555556,59.55 C69.8222222,61.5833333 68.2722222,63.5666667 66.6055556,65.5 C65.4055556,66.9 64.1722222,68.1833333 62.9055556,69.35 C61.6388889,70.5166667 60.2388889,71.5333333 58.7055556,72.4 C58.5722222,72.5333333 58.0388889,72.7 57.1055556,72.9 C57.1055556,71.9 57.1222222,70.9333333 57.1555556,70 C57.1888889,69.0666667 57.2722222,68.1333333 57.4055556,67.2 C57.8055556,66.8 58.1388889,66.5 58.4055556,66.3 C60.4055556,64.4333333 62.3055556,62.4666667 64.1055556,60.4 C65.9055556,58.3333333 67.8055556,56.3333333 69.8055556,54.4 C70.9388889,53.2 71.7888889,51.8666667 72.3555556,50.4 C72.9222222,48.9333333 73.4388889,47.4333333 73.9055556,45.9 C73.9722222,45.6333333 74.0055556,45.3 74.0055556,44.9 L74.0055556,44.9 L74.0055556,43.8 C73.6722222,41.8666667 73.0555556,40.15 72.1555556,38.65 C71.2555556,37.15 69.8722222,35.9333333 68.0055556,35 C66.4055556,34.1333333 64.9388889,33.4333333 63.6055556,32.9 C62.2722222,32.3666667 61.0055556,32.1166667 59.8055556,32.15 C58.6055556,32.1833333 57.4222222,32.6166667 56.2555556,33.45 C55.0888889,34.2833333 53.8722222,35.6333333 52.6055556,37.5 C50.4722222,40.9 48.7722222,44.4166667 47.5055556,48.05 C46.2388889,51.6833333 45.2055556,55.4333333 44.4055556,59.3 C44.1388889,60.8333333 43.9722222,62.3833333 43.9055556,63.95 C43.8388889,65.5166667 43.9388889,67.1 44.2055556,68.7 C44.8722222,72.5666667 46.9388889,75.4 50.4055556,77.2 C52.5388889,78.3333333 54.6722222,78.8833333 56.8055556,78.85 Z M61.7055556,52.7 C61.3722222,52.5 61.2055556,52.3333333 61.2055556,52.2 C61.2055556,51.6666667 61.2222222,51.1166667 61.2555556,50.55 C61.2888889,49.9833333 61.3388889,49.4 61.4055556,48.8 C61.9388889,48.3333333 62.3722222,47.8333333 62.7055556,47.3 C63.0388889,46.7666667 63.3055556,46.1666667 63.5055556,45.5 C63.7055556,44.7666667 63.9888889,44.0666667 64.3555556,43.4 C64.7222222,42.7333333 65.0722222,42.1 65.4055556,41.5 C65.4722222,41.3 65.5888889,41.1166667 65.7555556,40.95 L65.7555556,40.95 L66.3055556,40.4 C66.7722222,41.3333333 66.9555556,42.2 66.8555556,43 C66.7555556,43.8 66.7055556,44.6333333 66.7055556,45.5 C66.1055556,47.0333333 65.3722222,48.3666667 64.5055556,49.5 C63.6388889,50.6333333 62.7055556,51.7 61.7055556,52.7 Z M82.7555556,77.8 C83.3555556,77.6666667 83.9222222,77.5333333 84.4555556,77.4 C84.9888889,77.2666667 85.5222222,77.1 86.0555556,76.9 C86.1888889,75.6333333 86.3222222,74.4666667 86.4555556,73.4 C86.5888889,72.3333333 86.7555556,71.3 86.9555556,70.3 C87.2222222,69.1666667 87.4055556,68.0166667 87.5055556,66.85 C87.6055556,65.6833333 87.8222222,64.5333333 88.1555556,63.4 C88.6222222,61.9333333 88.9722222,60.3833333 89.2055556,58.75 C89.4388889,57.1166667 89.7222222,55.5 90.0555556,53.9 C90.4555556,52.1666667 90.8055556,50.4833333 91.1055556,48.85 C91.4055556,47.2166667 91.7888889,45.5333333 92.2555556,43.8 C92.9222222,41.4666667 93.5222222,39.0833333 94.0555556,36.65 C94.5888889,34.2166667 95.1555556,31.7666667 95.7555556,29.3 C95.8888889,28.7666667 96.0222222,28.2666667 96.1555556,27.8 L96.1555556,27.8 L96.5555556,26.4 C96.6888889,26.0666667 96.8722222,25.7166667 97.1055556,25.35 C97.3388889,24.9833333 97.5555556,24.6333333 97.7555556,24.3 C98.0888889,24.3666667 98.3888889,24.4166667 98.6555556,24.45 C98.9222222,24.4833333 99.2222222,24.4666667 99.5555556,24.4 C100.688889,24.2666667 101.788889,24.0833333 102.855556,23.85 C103.922222,23.6166667 105.022222,23.4 106.155556,23.2 C108.088889,22.8666667 109.988889,22.55 111.855556,22.25 C113.722222,21.95 115.622222,21.8 117.555556,21.8 C118.222222,21.8 118.872222,21.75 119.505556,21.65 C120.138889,21.55 120.822222,21.2333333 121.555556,20.7 C121.222222,19.5666667 120.755556,18.6 120.155556,17.8 C119.555556,17 118.922222,16.1666667 118.255556,15.3 C117.655556,15.3 117.038889,15.2833333 116.405556,15.25 C115.772222,15.2166667 115.155556,15.2333333 114.555556,15.3 C113.955556,15.3 113.355556,15.3166667 112.755556,15.35 C112.155556,15.3833333 111.522222,15.4333333 110.855556,15.5 C110.255556,15.5666667 109.688889,15.6166667 109.155556,15.65 C108.622222,15.6833333 108.022222,15.7333333 107.355556,15.8 C106.222222,16 104.988889,16.1 103.655556,16.1 C103.122222,16.1 102.572222,16.2333333 102.005556,16.5 C101.438889,16.7666667 100.822222,16.8 100.155556,16.6 C100.088889,15.8666667 100.038889,15.1666667 100.005556,14.5 C99.9722222,13.8333333 99.9555556,13.1666667 99.9555556,12.5 C99.6222222,12.1666667 99.3388889,11.7833333 99.1055556,11.35 C98.8722222,10.9166667 98.5888889,10.5666667 98.2555556,10.3 C97.2555556,9.43333333 96.2388889,8.63333333 95.2055556,7.9 C94.1722222,7.16666667 93.1888889,6.36666667 92.2555556,5.5 C91.7888889,5.83333333 91.4222222,6.11666667 91.1555556,6.35 C90.8888889,6.58333333 90.6722222,6.8 90.5055556,7 C90.3388889,7.2 90.1888889,7.43333333 90.0555556,7.7 L90.0555556,7.7 L89.5555556,8.7 C88.9555556,10.0333333 88.3888889,11.3166667 87.8555556,12.55 C87.3222222,13.7833333 86.7555556,15.0666667 86.1555556,16.4 C85.9555556,16.9333333 85.7555556,17.45 85.5555556,17.95 C85.3555556,18.45 85.1222222,18.9666667 84.8555556,19.5 C83.2555556,19.8333333 81.6722222,20.15 80.1055556,20.45 C78.5388889,20.75 76.9888889,21.0666667 75.4555556,21.4 C74.3888889,21.7333333 73.3388889,22.05 72.3055556,22.35 C71.2722222,22.65 70.2222222,22.9666667 69.1555556,23.3 C68.7555556,23.5 68.3722222,23.7833333 68.0055556,24.15 C67.6388889,24.5166667 67.4555556,25.1 67.4555556,25.9 C67.9222222,26.9666667 68.4888889,27.8666667 69.1555556,28.6 C69.8222222,29.3333333 70.5222222,29.9666667 71.2555556,30.5 C71.9888889,30.6333333 72.6722222,30.8 73.3055556,31 C73.9388889,31.2 74.6222222,31.1333333 75.3555556,30.8 C76.2888889,30.3333333 77.2222222,29.95 78.1555556,29.65 C79.0888889,29.35 80.0222222,28.7666667 80.9555556,27.9 C81.0222222,27.8333333 81.1055556,27.8166667 81.2055556,27.85 C81.3055556,27.8833333 81.4555556,27.8666667 81.6555556,27.8 C81.7888889,27.9333333 81.9055556,28.0833333 82.0055556,28.25 C82.1055556,28.4166667 82.2222222,28.5666667 82.3555556,28.7 L82.3555556,28.7 L82.0555556,30.5 C81.5222222,33.0333333 80.9722222,35.6 80.4055556,38.2 C79.8388889,40.8 79.3555556,43.4 78.9555556,46 C78.3555556,49 77.8888889,51.95 77.5555556,54.85 C77.2222222,57.75 76.8888889,60.6666667 76.5555556,63.6 C76.3555556,65.4666667 76.3222222,67.3 76.4555556,69.1 C76.5888889,70.9 76.7555556,72.6666667 76.9555556,74.4 C77.9555556,75.1333333 78.9388889,75.8 79.9055556,76.4 C80.8722222,77 81.8222222,77.4666667 82.7555556,77.8 Z M105.805556,12.9 L106.805556,12.5 C107.138889,12.3666667 107.438889,12.2666667 107.705556,12.2 C108.438889,10.5333333 109.105556,8.91666667 109.705556,7.35 C110.305556,5.78333333 110.972222,4.2 111.705556,2.6 C111.572222,2.46666667 111.505556,2.31666667 111.505556,2.15 C111.505556,1.98333333 111.438889,1.73333333 111.305556,1.4 C110.438889,1.4 109.705556,1.2 109.105556,0.8 C108.505556,0.4 107.805556,0.133333333 107.005556,1.42108547e-14 C106.472222,0.6 106.138889,1.01666667 106.005556,1.25 C105.872222,1.48333333 105.672222,1.93333333 105.405556,2.6 C104.938889,3.73333333 104.522222,4.86666667 104.155556,6 C103.788889,7.13333333 103.405556,8.26666667 103.005556,9.4 C103.072222,9.86666667 103.072222,10.2833333 103.005556,10.65 C102.938889,11.0166667 102.905556,11.3666667 102.905556,11.7 C103.505556,12.1666667 103.922222,12.45 104.155556,12.55 C104.388889,12.65 104.938889,12.7666667 105.805556,12.9 L105.805556,12.9 Z M122.205556,79.8 C123.305556,79.9333333 124.455556,79.8333333 125.655556,79.5 C126.388889,79.3 127.122222,79.0333333 127.855556,78.7 C128.588889,78.3666667 129.322222,78.1333333 130.055556,78 C130.788889,77.9333333 131.405556,77.7666667 131.905556,77.5 C132.405556,77.2333333 132.922222,76.9 133.455556,76.5 C134.322222,75.9666667 135.138889,75.3833333 135.905556,74.75 C136.672222,74.1166667 137.455556,73.4666667 138.255556,72.8 C138.788889,72.2666667 139.255556,71.7333333 139.655556,71.2 C140.055556,70.6666667 140.522222,70.0666667 141.055556,69.4 C141.455556,68.8 141.872222,68.2 142.305556,67.6 C142.738889,67 142.988889,66.2333333 143.055556,65.3 C143.122222,65.1666667 143.238889,65.0166667 143.405556,64.85 C143.572222,64.6833333 143.722222,64.5 143.855556,64.3 C143.922222,63.7666667 143.972222,63.3 144.005556,62.9 C144.038889,62.5 144.122222,62.0333333 144.255556,61.5 C144.655556,59.5666667 144.155556,57.8333333 142.755556,56.3 C142.555556,56.1 142.388889,55.8833333 142.255556,55.65 C142.122222,55.4166667 141.988889,55.1333333 141.855556,54.8 C140.722222,54.2666667 139.572222,53.7333333 138.405556,53.2 C137.238889,52.6666667 136.022222,52.1666667 134.755556,51.7 C134.755556,51.1666667 134.872222,50.7 135.105556,50.3 C135.338889,49.9 135.622222,49.5333333 135.955556,49.2 C136.488889,48.8 136.922222,48.4333333 137.255556,48.1 C137.922222,47.4333333 138.838889,46.6 140.005556,45.6 C141.172222,44.6 142.422222,43.6166667 143.755556,42.65 C145.088889,41.6833333 146.422222,40.8166667 147.755556,40.05 C149.088889,39.2833333 150.288889,38.7666667 151.355556,38.5 C151.222222,38.1 151.105556,37.75 151.005556,37.45 C150.905556,37.15 150.788889,36.8666667 150.655556,36.6 C149.122222,35.4666667 147.572222,34.35 146.005556,33.25 C144.438889,32.15 142.955556,31.1333333 141.555556,30.2 C141.155556,30.2 140.805556,30.1833333 140.505556,30.15 C140.205556,30.1166667 139.922222,30.1333333 139.655556,30.2 C139.188889,30.2 138.755556,30.3 138.355556,30.5 C137.888889,30.7666667 137.222222,31.1666667 136.355556,31.7 C135.488889,32.2333333 134.572222,32.8166667 133.605556,33.45 C132.638889,34.0833333 131.722222,34.6833333 130.855556,35.25 C129.988889,35.8166667 129.355556,36.2666667 128.955556,36.6 C127.155556,37.9333333 125.438889,39.3666667 123.805556,40.9 C122.172222,42.4333333 120.688889,44.1333333 119.355556,46 C118.822222,46.8666667 118.322222,47.7 117.855556,48.5 C117.388889,49.3 116.988889,50.1666667 116.655556,51.1 C116.322222,52.3 116.222222,53.5333333 116.355556,54.8 C116.355556,56.0666667 116.888889,57.1666667 117.955556,58.1 C120.155556,59.9 122.588889,61 125.255556,61.4 C128.522222,61.5333333 131.355556,60.6666667 133.755556,58.8 L133.755556,58.8 L134.555556,58.8 C134.288889,59.3333333 134.072222,59.8333333 133.905556,60.3 C133.738889,60.7666667 133.555556,61.1666667 133.355556,61.5 C133.155556,61.9666667 132.938889,62.3833333 132.705556,62.75 C132.472222,63.1166667 132.188889,63.5 131.855556,63.9 C129.388889,66.7666667 126.755556,69.4 123.955556,71.8 C122.955556,72.6666667 121.888889,73.4 120.755556,74 C119.622222,74.6 118.455556,75.2 117.255556,75.8 C117.122222,76.1333333 117.038889,76.4833333 117.005556,76.85 C116.972222,77.2166667 116.888889,77.6 116.755556,78 C117.288889,78.2666667 117.705556,78.4833333 118.005556,78.65 C118.305556,78.8166667 118.588889,78.9666667 118.855556,79.1 C119.988889,79.4333333 121.105556,79.6666667 122.205556,79.8 Z M187.205556,84.05 C189.438889,84.8166667 191.855556,85.1333333 194.455556,85 C194.855556,84.9333333 195.272222,84.8666667 195.705556,84.8 C196.138889,84.7333333 196.555556,84.7666667 196.955556,84.9 C197.955556,84.9 198.922222,84.7166667 199.855556,84.35 C200.788889,83.9833333 201.688889,83.5333333 202.555556,83 C203.088889,82.6666667 203.605556,82.2833333 204.105556,81.85 C204.605556,81.4166667 205.122222,81.0333333 205.655556,80.7 C206.655556,79.9666667 207.538889,79.1333333 208.305556,78.2 C209.072222,77.2666667 209.922222,76.3666667 210.855556,75.5 C211.988889,74.2333333 213.005556,72.9333333 213.905556,71.6 C214.805556,70.2666667 215.822222,68.9333333 216.955556,67.6 C217.488889,66.9333333 217.955556,66.2333333 218.355556,65.5 C218.755556,64.7666667 219.122222,64 219.455556,63.2 C219.855556,62.4 220.322222,61.6666667 220.855556,61 C221.388889,60.3333333 221.922222,59.6333333 222.455556,58.9 C222.722222,58.5666667 222.938889,58.2333333 223.105556,57.9 C223.272222,57.5666667 223.355556,57.2333333 223.355556,56.9 C223.422222,56.1666667 223.605556,55.4666667 223.905556,54.8 C224.205556,54.1333333 224.555556,53.4333333 224.955556,52.7 C224.688889,52.4333333 224.472222,52.2 224.305556,52 C224.138889,51.8 223.922222,51.6333333 223.655556,51.5 L223.655556,51.5 L220.655556,50.5 C219.655556,50.1666667 218.688889,49.8333333 217.755556,49.5 C217.555556,49.6333333 217.422222,49.7333333 217.355556,49.8 L217.355556,49.8 L217.055556,50.1 C216.922222,50.3 216.788889,50.5333333 216.655556,50.8 C216.522222,51.0666667 216.388889,51.3 216.255556,51.5 C215.922222,52.4333333 215.538889,53.3 215.105556,54.1 C214.672222,54.9 214.188889,55.7 213.655556,56.5 C211.855556,58.8333333 210.022222,61.1333333 208.155556,63.4 C206.288889,65.6666667 204.322222,67.8333333 202.255556,69.9 C201.255556,70.9666667 200.222222,72.0166667 199.155556,73.05 C198.088889,74.0833333 196.955556,74.9666667 195.755556,75.7 C194.955556,76.3 194.172222,76.8666667 193.405556,77.4 C192.638889,77.9333333 191.755556,78.3666667 190.755556,78.7 C190.155556,78.1 189.722222,77.5333333 189.455556,77 C189.255556,76.3333333 189.088889,75.6666667 188.955556,75 L188.955556,75 L188.555556,73 C188.422222,72.4666667 188.322222,71.9333333 188.255556,71.4 C188.188889,70.8666667 188.122222,70.3666667 188.055556,69.9 C188.188889,69.1666667 188.288889,68.4833333 188.355556,67.85 C188.422222,67.2166667 188.488889,66.6333333 188.555556,66.1 C188.888889,64.3 189.138889,62.5166667 189.305556,60.75 C189.472222,58.9833333 189.888889,57.2333333 190.555556,55.5 C190.822222,54.9666667 190.972222,54.4 191.005556,53.8 C191.038889,53.2 191.122222,52.6333333 191.255556,52.1 C191.255556,51.6333333 191.322222,51.3 191.455556,51.1 C192.788889,48.1666667 194.122222,45.25 195.455556,42.35 C196.788889,39.45 198.355556,36.6333333 200.155556,33.9 C200.888889,32.7666667 201.638889,31.6166667 202.405556,30.45 C203.172222,29.2833333 203.922222,28.1 204.655556,26.9 C204.988889,26.4333333 205.305556,26.05 205.605556,25.75 C205.905556,25.45 206.155556,25.0666667 206.355556,24.6 C206.622222,24.2666667 206.838889,23.8833333 207.005556,23.45 C207.172222,23.0166667 207.355556,22.5333333 207.555556,22 C207.755556,22.1333333 207.938889,22.2166667 208.105556,22.25 C208.272222,22.2833333 208.422222,22.3666667 208.555556,22.5 C208.355556,23.5666667 208.072222,24.6166667 207.705556,25.65 C207.338889,26.6833333 207.022222,27.7166667 206.755556,28.75 C206.488889,29.7833333 206.322222,30.8333333 206.255556,31.9 C206.188889,32.9666667 206.322222,34.0333333 206.655556,35.1 C208.988889,37.5666667 211.988889,38.5666667 215.655556,38.1 C216.322222,35.9 217.155556,33.7166667 218.155556,31.55 C219.155556,29.3833333 220.022222,27.1666667 220.755556,24.9 L220.701556,25.061 L220.699306,25.078125 C220.693056,25.1104167 220.686285,25.1450521 220.678993,25.1820313 L220.655556,25.3 C221.188889,24.5 221.605556,23.8833333 221.905556,23.45 C222.205556,23.0166667 222.488889,22.5333333 222.755556,22 C224.088889,19 225.655556,15.9333333 227.455556,12.8 C227.922222,11.9333333 228.355556,11.05 228.755556,10.15 C229.155556,9.25 229.588889,8.36666667 230.055556,7.5 C229.922222,7.16666667 229.805556,6.86666667 229.705556,6.6 C229.605556,6.33333333 229.488889,6.03333333 229.355556,5.7 C228.688889,5.3 228.038889,4.91666667 227.405556,4.55 C226.772222,4.18333333 226.088889,3.8 225.355556,3.4 C224.688889,3.06666667 224.105556,2.61666667 223.605556,2.05 C223.105556,1.48333333 222.488889,1.13333333 221.755556,1 C220.755556,0.866666667 220.005556,1.1 219.505556,1.7 C219.005556,2.3 218.388889,2.76666667 217.655556,3.1 C217.188889,2.96666667 216.772222,2.83333333 216.405556,2.7 C216.038889,2.56666667 215.655556,2.46666667 215.255556,2.4 L215.255556,2.4 L213.055556,2.4 C209.322222,4.13333333 206.122222,6.36666667 203.455556,9.1 C200.788889,11.8333333 198.255556,14.6333333 195.855556,17.5 L195.855556,17.5 L196.255556,19.5 C195.588889,19.7666667 194.822222,20 193.955556,20.2 C193.022222,21.2666667 192.105556,22.35 191.205556,23.45 C190.305556,24.55 189.488889,25.7 188.755556,26.9 C187.955556,28.1 187.172222,29.2833333 186.405556,30.45 C185.638889,31.6166667 184.888889,32.8 184.155556,34 L184.155556,34 L181.555556,38.6 C180.688889,40.1333333 179.888889,41.7 179.155556,43.3 C178.288889,45.3 177.538889,47.3 176.905556,49.3 C176.272222,51.3 175.755556,53.3666667 175.355556,55.5 C175.022222,57.4333333 174.755556,59.3666667 174.555556,61.3 C174.355556,63.2333333 174.322222,65.1666667 174.455556,67.1 C174.455556,68.9666667 174.755556,70.8 175.355556,72.6 C175.755556,74.2666667 176.372222,75.8166667 177.205556,77.25 C178.038889,78.6833333 179.222222,79.9 180.755556,80.9 C182.822222,82.2333333 184.972222,83.2833333 187.205556,84.05 Z M304.105556,78.7 L304.455556,78.35 C304.555556,78.25 304.638889,78.1333333 304.705556,78 C304.972222,77.4 305.288889,77 305.655556,76.8 C306.022222,76.6 306.405556,76.4333333 306.805556,76.3 C307.205556,76.1666667 307.605556,76.0166667 308.005556,75.85 C308.405556,75.6833333 308.805556,75.3333333 309.205556,74.8 C309.538889,74.3333333 310.172222,73.4833333 311.105556,72.25 C312.038889,71.0166667 313.055556,69.7166667 314.155556,68.35 C315.255556,66.9833333 316.272222,65.6833333 317.205556,64.45 C318.138889,63.2166667 318.772222,62.3666667 319.105556,61.9 C319.705556,61.0333333 320.305556,60.2 320.905556,59.4 C321.505556,58.6 322.205556,57.8333333 323.005556,57.1 C323.872222,56.4333333 324.205556,55.5 324.005556,54.3 C324.005556,54.2333333 323.938889,54 323.805556,53.6 C323.672222,53.4 323.505556,53.2 323.305556,53 C323.105556,52.8 322.938889,52.6 322.805556,52.4 L322.805556,52.4 L319.205556,52.7 L317.105556,54.7 L317.105556,54.7 L315.105556,57.1 C314.838889,57.4333333 314.288889,58.1333333 313.455556,59.2 C312.622222,60.2666667 311.705556,61.4 310.705556,62.6 C309.705556,63.8 308.755556,64.8833333 307.855556,65.85 C306.955556,66.8166667 306.305556,67.3666667 305.905556,67.5 C306.038889,66.9 306.205556,66.1 306.405556,65.1 C306.605556,64.1 306.822222,63.0666667 307.055556,62 C307.288889,60.9333333 307.505556,59.9 307.705556,58.9 C307.905556,57.9 308.072222,57.1333333 308.205556,56.6 C308.605556,55.6 308.955556,54.5833333 309.255556,53.55 C309.555556,52.5166667 309.872222,51.5 310.205556,50.5 C310.672222,49.4333333 311.072222,48.3666667 311.405556,47.3 C311.738889,46.2333333 312.105556,45.1333333 312.505556,44 L312.505556,44 L312.705556,42.4 C312.772222,41.8666667 312.805556,41.3166667 312.805556,40.75 C312.805556,40.1833333 312.688889,39.6166667 312.455556,39.05 C312.222222,38.4833333 311.838889,37.9333333 311.305556,37.4 C310.038889,37.0666667 308.705556,36.7 307.305556,36.3 C305.905556,35.9 304.505556,35.5333333 303.105556,35.2 C302.905556,35.1333333 302.688889,35.1166667 302.455556,35.15 C302.222222,35.1833333 302.038889,35.2 301.905556,35.2 C300.772222,36.1333333 299.655556,37.0333333 298.555556,37.9 C297.455556,38.7666667 296.372222,39.6666667 295.305556,40.6 C290.172222,45 285.372222,49.6 280.905556,54.4 L280.905556,54.4 L278.805556,56.1 C278.672222,56.2333333 278.588889,56.35 278.555556,56.45 C278.522222,56.55 278.472222,56.6 278.405556,56.6 C277.938889,56.6 278.005556,56.4 278.605556,56 C278.538889,55.1333333 278.638889,54.2 278.905556,53.2 C279.372222,52 279.722222,51.0166667 279.955556,50.25 C280.188889,49.4833333 280.405556,48.75 280.605556,48.05 C280.805556,47.35 280.972222,46.6 281.105556,45.8 C281.238889,45 281.438889,43.9666667 281.705556,42.7 C281.772222,42.3666667 281.788889,42.05 281.755556,41.75 C281.722222,41.45 281.705556,41.1333333 281.705556,40.8 L281.705556,40.8 L280.105556,38.9 C278.838889,38.4333333 277.688889,38.0333333 276.655556,37.7 C275.622222,37.3666667 274.572222,37.0333333 273.505556,36.7 C273.172222,36.5666667 272.772222,36.4833333 272.305556,36.45 C271.838889,36.4166667 271.338889,36.5333333 270.805556,36.8 L270.805556,36.8 L270.305556,37.3 C267.772222,37.5 265.188889,37.4333333 262.555556,37.1 C259.922222,36.7666667 257.438889,36.2333333 255.105556,35.5 C254.438889,35.3 253.822222,35.2666667 253.255556,35.4 C252.688889,35.5333333 252.188889,35.7166667 251.755556,35.95 C251.322222,36.1833333 250.988889,36.4333333 250.755556,36.7 C250.522222,36.9666667 250.405556,37.1333333 250.405556,37.2 L250.405556,37.2 L248.605556,38.9 C247.138889,38.1 245.738889,37.2833333 244.405556,36.45 C243.072222,35.6166667 241.672222,34.8333333 240.205556,34.1 C239.538889,34.1666667 238.972222,34.35 238.505556,34.65 C238.038889,34.95 237.605556,35.3333333 237.205556,35.8 C236.738889,36.3333333 236.288889,36.8666667 235.855556,37.4 C235.422222,37.9333333 234.972222,38.5666667 234.505556,39.3 C233.305556,41.3 232.138889,43.3666667 231.005556,45.5 C229.872222,47.6333333 228.838889,49.9 227.905556,52.3 C226.905556,54.8333333 226.205556,57.4166667 225.805556,60.05 C225.405556,62.6833333 225.372222,65.4666667 225.705556,68.4 C226.172222,69.5333333 226.588889,70.4833333 226.955556,71.25 C227.322222,72.0166667 227.722222,72.6666667 228.155556,73.2 C228.588889,73.7333333 229.122222,74.2333333 229.755556,74.7 C230.388889,75.1666667 231.172222,75.7 232.105556,76.3 L232.105556,76.3 L234.405556,77.4 C239.872222,79.5333333 244.938889,78.7666667 249.605556,75.1 C250.738889,74.1 251.755556,72.95 252.655556,71.65 C253.555556,70.35 254.472222,69.0666667 255.405556,67.8 C255.738889,67.2666667 256.005556,66.6833333 256.205556,66.05 C256.405556,65.4166667 256.672222,64.8 257.005556,64.2 C256.938889,63.8666667 256.888889,63.5833333 256.855556,63.35 C256.822222,63.1166667 256.805556,62.9 256.805556,62.7 C257.138889,61.9666667 257.488889,61.3333333 257.855556,60.8 C258.222222,60.2666667 258.572222,59.7333333 258.905556,59.2 C259.305556,57.8 259.555556,56.4166667 259.655556,55.05 C259.755556,53.6833333 259.772222,52.3333333 259.705556,51 C259.705556,50.8666667 259.622222,50.3333333 259.455556,49.4 C259.288889,48.4666667 259.122222,47.4666667 258.955556,46.4 C258.788889,45.3333333 258.672222,44.35 258.605556,43.45 C258.538889,42.55 258.605556,42.0333333 258.805556,41.9 C261.272222,43.1666667 263.805556,43.8333333 266.405556,43.9 C264.938889,47.3666667 263.738889,50.95 262.805556,54.65 C261.872222,58.35 261.205556,62.0666667 260.805556,65.8 C260.672222,67.3333333 260.622222,68.7833333 260.655556,70.15 C260.688889,71.5166667 260.938889,72.8666667 261.405556,74.2 C261.872222,74.8666667 262.438889,75.3666667 263.105556,75.7 C263.772222,76.0333333 264.455556,76.3 265.155556,76.5 C265.855556,76.7 266.555556,76.8833333 267.255556,77.05 C267.955556,77.2166667 268.638889,77.4333333 269.305556,77.7 L269.305556,77.7 L271.205556,76.6 L273.005556,76 L273.605556,74.3 L276.505556,73.3 C276.772222,73.1 277.072222,72.8833333 277.405556,72.65 C277.738889,72.4166667 277.972222,72.1333333 278.105556,71.8 L278.105556,71.8 L284.905556,63.3 L286.705556,61.3 C287.705556,60.1 288.722222,58.9166667 289.755556,57.75 C290.788889,56.5833333 291.872222,55.4333333 293.005556,54.3 C293.005556,54.2333333 293.105556,54.2 293.305556,54.2 C293.572222,54.5333333 293.688889,54.9333333 293.655556,55.4 C293.622222,55.8666667 293.572222,56.2666667 293.505556,56.6 L293.505556,56.6 L292.605556,65.7 C292.472222,66.9 292.505556,67.9666667 292.705556,68.9 C292.838889,70.0333333 293.022222,71.1833333 293.255556,72.35 C293.488889,73.5166667 293.672222,74.6333333 293.805556,75.7 C294.672222,76.7 295.622222,77.3333333 296.655556,77.6 C297.688889,77.8666667 298.738889,78.1 299.805556,78.3 C300.538889,78.4333333 301.255556,78.5166667 301.955556,78.55 C302.655556,78.5833333 303.372222,78.6333333 304.105556,78.7 L304.105556,78.7 Z M239.805556,70.7 C239.672222,70.5666667 239.538889,70.4666667 239.405556,70.4 L239.405556,70.4 L239.005556,70.2 C238.938889,70.0666667 238.872222,69.95 238.805556,69.85 C238.738889,69.75 238.705556,69.6333333 238.705556,69.5 C239.038889,66.0333333 239.772222,63 240.905556,60.4 L240.905556,60.4 L241.305556,58.8 C241.638889,57.2 242.088889,55.6833333 242.655556,54.25 C243.222222,52.8166667 243.805556,51.4 244.405556,50 C244.738889,49.1333333 245.072222,48.2 245.405556,47.2 C245.738889,46.2 246.105556,45.2333333 246.505556,44.3 L246.505556,44.3 L247.605556,43.7 L249.305556,40.1 C250.105556,41.4333333 250.638889,43 250.905556,44.8 C251.172222,46.6 251.172222,48.9666667 250.905556,51.9 C250.705556,53.8333333 250.355556,55.7333333 249.855556,57.6 C249.355556,59.4666667 248.572222,61.2666667 247.505556,63 C246.505556,64.6666667 245.355556,66.0833333 244.055556,67.25 C242.755556,68.4166667 241.338889,69.5666667 239.805556,70.7 Z M360.155556,78.7 L360.505556,78.35 C360.605556,78.25 360.688889,78.1333333 360.755556,78 C361.022222,77.4 361.338889,77 361.705556,76.8 C362.072222,76.6 362.455556,76.4333333 362.855556,76.3 C363.255556,76.1666667 363.655556,76.0166667 364.055556,75.85 C364.455556,75.6833333 364.855556,75.3333333 365.255556,74.8 C365.588889,74.3333333 366.222222,73.4833333 367.155556,72.25 C368.088889,71.0166667 369.105556,69.7166667 370.205556,68.35 C371.305556,66.9833333 372.322222,65.6833333 373.255556,64.45 C374.188889,63.2166667 374.822222,62.3666667 375.155556,61.9 C375.755556,61.0333333 376.355556,60.2 376.955556,59.4 C377.555556,58.6 378.255556,57.8333333 379.055556,57.1 C379.922222,56.4333333 380.255556,55.5 380.055556,54.3 C380.055556,54.2333333 379.988889,54 379.855556,53.6 C379.722222,53.4 379.555556,53.2 379.355556,53 C379.155556,52.8 378.988889,52.6 378.855556,52.4 C378.188889,52.4666667 377.588889,52.5166667 377.055556,52.55 L376.727556,52.572 C376.279556,52.604 375.788889,52.6466667 375.255556,52.7 C374.922222,53.0333333 374.572222,53.3666667 374.205556,53.7 C373.838889,54.0333333 373.488889,54.3666667 373.155556,54.7 L373.155556,54.7 L371.155556,57.1 C370.888889,57.4333333 370.338889,58.1333333 369.505556,59.2 C368.672222,60.2666667 367.755556,61.4 366.755556,62.6 C365.755556,63.8 364.805556,64.8833333 363.905556,65.85 C363.005556,66.8166667 362.355556,67.3666667 361.955556,67.5 C362.088889,66.9 362.255556,66.1 362.455556,65.1 C362.655556,64.1 362.872222,63.0666667 363.105556,62 C363.338889,60.9333333 363.555556,59.9 363.755556,58.9 C363.955556,57.9 364.122222,57.1333333 364.255556,56.6 C364.655556,55.6 365.005556,54.5833333 365.305556,53.55 C365.605556,52.5166667 365.922222,51.5 366.255556,50.5 C366.722222,49.4333333 367.122222,48.3666667 367.455556,47.3 C367.788889,46.2333333 368.155556,45.1333333 368.555556,44 L368.555556,44 L368.755556,42.4 C368.822222,41.8666667 368.855556,41.3166667 368.855556,40.75 C368.855556,40.1833333 368.738889,39.6166667 368.505556,39.05 C368.272222,38.4833333 367.888889,37.9333333 367.355556,37.4 C366.088889,37.0666667 364.755556,36.7 363.355556,36.3 C361.955556,35.9 360.555556,35.5333333 359.155556,35.2 C358.955556,35.1333333 358.738889,35.1166667 358.505556,35.15 C358.272222,35.1833333 358.088889,35.2 357.955556,35.2 C356.822222,36.1333333 355.705556,37.0333333 354.605556,37.9 C353.505556,38.7666667 352.422222,39.6666667 351.355556,40.6 C346.222222,45 341.422222,49.6 336.955556,54.4 C336.622222,54.7333333 336.272222,55.0166667 335.905556,55.25 C335.538889,55.4833333 335.188889,55.7666667 334.855556,56.1 C334.722222,56.2333333 334.638889,56.35 334.605556,56.45 C334.572222,56.55 334.522222,56.6 334.455556,56.6 C333.988889,56.6 334.055556,56.4 334.655556,56 C334.588889,55.1333333 334.688889,54.2 334.955556,53.2 C335.888889,50.8666667 336.622222,48.4833333 337.155556,46.05 C337.688889,43.6166667 338.222222,41.1333333 338.755556,38.6 C338.822222,38.2666667 338.838889,37.95 338.805556,37.65 C338.772222,37.35 338.755556,37.0333333 338.755556,36.7 C338.488889,36.3666667 338.205556,36.0333333 337.905556,35.7 C337.605556,35.3666667 337.355556,35.0666667 337.155556,34.8 C335.888889,34.3333333 334.738889,33.9333333 333.705556,33.6 C332.672222,33.2666667 331.622222,32.9333333 330.555556,32.6 C330.222222,32.4666667 329.822222,32.3833333 329.355556,32.35 C328.888889,32.3166667 328.388889,32.4333333 327.855556,32.7 L327.855556,32.7 L327.155556,33.4 C326.888889,33.6666667 326.655556,33.9666667 326.455556,34.3 C325.788889,35.1666667 325.255556,36.0333333 324.855556,36.9 C323.922222,38.7666667 323.072222,40.6166667 322.305556,42.45 C321.538889,44.2833333 320.922222,46.2 320.455556,48.2 C319.722222,51.2 319.038889,54.1333333 318.405556,57 C317.772222,59.8666667 317.255556,62.8 316.855556,65.8 C316.722222,67.3333333 316.672222,68.7833333 316.705556,70.15 C316.738889,71.5166667 316.988889,72.8666667 317.455556,74.2 C317.922222,74.8666667 318.488889,75.3666667 319.155556,75.7 C319.822222,76.0333333 320.505556,76.3 321.205556,76.5 C321.905556,76.7 322.605556,76.8833333 323.305556,77.05 C324.005556,77.2166667 324.688889,77.4333333 325.355556,77.7 C325.688889,77.5 326.005556,77.3 326.305556,77.1 C326.605556,76.9 326.922222,76.7333333 327.255556,76.6 C327.588889,76.4666667 327.905556,76.3666667 328.205556,76.3 C328.505556,76.2333333 328.788889,76.1333333 329.055556,76 C329.188889,75.7333333 329.288889,75.4666667 329.355556,75.2 C329.422222,74.9333333 329.522222,74.6333333 329.655556,74.3 C330.055556,74.1666667 330.505556,74.0166667 331.005556,73.85 C331.505556,73.6833333 332.022222,73.5 332.555556,73.3 C332.822222,73.1 333.122222,72.8833333 333.455556,72.65 C333.788889,72.4166667 334.022222,72.1333333 334.155556,71.8 C335.288889,70.4 336.422222,68.9833333 337.555556,67.55 C338.688889,66.1166667 339.822222,64.7 340.955556,63.3 C341.288889,62.9666667 341.588889,62.6333333 341.855556,62.3 C342.122222,61.9666667 342.422222,61.6333333 342.755556,61.3 C343.755556,60.1 344.772222,58.9166667 345.805556,57.75 C346.838889,56.5833333 347.922222,55.4333333 349.055556,54.3 C349.055556,54.2333333 349.155556,54.2 349.355556,54.2 C349.622222,54.5333333 349.738889,54.9333333 349.705556,55.4 C349.672222,55.8666667 349.622222,56.2666667 349.555556,56.6 C349.422222,58.2 349.272222,59.7666667 349.105556,61.3 C348.938889,62.8333333 348.788889,64.3 348.655556,65.7 C348.522222,66.9 348.555556,67.9666667 348.755556,68.9 C348.888889,70.0333333 349.072222,71.1833333 349.305556,72.35 C349.538889,73.5166667 349.722222,74.6333333 349.855556,75.7 C350.722222,76.7 351.672222,77.3333333 352.705556,77.6 C353.738889,77.8666667 354.788889,78.1 355.855556,78.3 C356.588889,78.4333333 357.305556,78.5166667 358.005556,78.55 C358.705556,78.5833333 359.422222,78.6333333 360.155556,78.7 L360.155556,78.7 Z M385.805556,78.85 C387.938889,78.8166667 390.105556,78.5 392.305556,77.9 C392.772222,77.7 393.372222,77.3666667 394.105556,76.9 L394.105556,76.9 L396.305556,74.9 C397.038889,74.2333333 397.772222,73.5333333 398.505556,72.8 C402.305556,68.2666667 405.838889,63.4666667 409.105556,58.4 C409.372222,58.0666667 409.655556,57.6833333 409.955556,57.25 C410.255556,56.8166667 410.372222,56.4333333 410.305556,56.1 C410.238889,55.5 410.338889,55.0333333 410.605556,54.7 C410.872222,54.3666667 411.072222,54 411.205556,53.6 C410.805556,53.2666667 410.472222,53 410.205556,52.8 C409.938889,52.6 409.622222,52.4333333 409.255556,52.3 C408.888889,52.1666667 408.455556,52.0333333 407.955556,51.9 C407.455556,51.7666667 406.738889,51.6 405.805556,51.4 L405.805556,51.4 L404.605556,53.2 C403.138889,55.4 401.688889,57.5166667 400.255556,59.55 C398.822222,61.5833333 397.272222,63.5666667 395.605556,65.5 C394.405556,66.9 393.172222,68.1833333 391.905556,69.35 C390.638889,70.5166667 389.238889,71.5333333 387.705556,72.4 C387.572222,72.5333333 387.038889,72.7 386.105556,72.9 C386.105556,71.9 386.122222,70.9333333 386.155556,70 C386.188889,69.0666667 386.272222,68.1333333 386.405556,67.2 C386.805556,66.8 387.138889,66.5 387.405556,66.3 C389.405556,64.4333333 391.305556,62.4666667 393.105556,60.4 C394.905556,58.3333333 396.805556,56.3333333 398.805556,54.4 C399.938889,53.2 400.788889,51.8666667 401.355556,50.4 C401.922222,48.9333333 402.438889,47.4333333 402.905556,45.9 C402.972222,45.6333333 403.005556,45.3 403.005556,44.9 L403.005556,44.9 L403.005556,43.8 C402.672222,41.8666667 402.055556,40.15 401.155556,38.65 C400.255556,37.15 398.872222,35.9333333 397.005556,35 C395.405556,34.1333333 393.938889,33.4333333 392.605556,32.9 C391.272222,32.3666667 390.005556,32.1166667 388.805556,32.15 C387.605556,32.1833333 386.422222,32.6166667 385.255556,33.45 C384.088889,34.2833333 382.872222,35.6333333 381.605556,37.5 C379.472222,40.9 377.772222,44.4166667 376.505556,48.05 C375.238889,51.6833333 374.205556,55.4333333 373.405556,59.3 C373.138889,60.8333333 372.972222,62.3833333 372.905556,63.95 C372.838889,65.5166667 372.938889,67.1 373.205556,68.7 C373.872222,72.5666667 375.938889,75.4 379.405556,77.2 C381.538889,78.3333333 383.672222,78.8833333 385.805556,78.85 Z M390.705556,52.7 C390.372222,52.5 390.205556,52.3333333 390.205556,52.2 C390.205556,51.6666667 390.222222,51.1166667 390.255556,50.55 C390.288889,49.9833333 390.338889,49.4 390.405556,48.8 C390.938889,48.3333333 391.372222,47.8333333 391.705556,47.3 C392.038889,46.7666667 392.305556,46.1666667 392.505556,45.5 C392.705556,44.7666667 392.988889,44.0666667 393.355556,43.4 C393.722222,42.7333333 394.072222,42.1 394.405556,41.5 C394.472222,41.3 394.588889,41.1166667 394.755556,40.95 L394.755556,40.95 L395.305556,40.4 C395.772222,41.3333333 395.955556,42.2 395.855556,43 C395.755556,43.8 395.705556,44.6333333 395.705556,45.5 C395.105556,47.0333333 394.372222,48.3666667 393.505556,49.5 C392.638889,50.6333333 391.705556,51.7 390.705556,52.7 Z M416.155556,77.55 C417.688889,77.5833333 419.222222,77.3666667 420.755556,76.9 C421.488889,76.3666667 422.222222,75.8666667 422.955556,75.4 C423.688889,74.9333333 424.422222,74.4 425.155556,73.8 C425.288889,73.6666667 425.422222,73.55 425.555556,73.45 C425.688889,73.35 425.822222,73.2 425.955556,73 C426.355556,72.4666667 426.738889,71.9 427.105556,71.3 C427.472222,70.7 427.888889,70.0666667 428.355556,69.4 C428.488889,69.0666667 428.655556,68.8333333 428.855556,68.7 C429.055556,68.5666667 429.222222,68.4 429.355556,68.2 C429.822222,67.4666667 430.338889,66.8333333 430.905556,66.3 C431.472222,65.7666667 432.005556,65.2333333 432.505556,64.7 C433.005556,64.1666667 433.455556,63.6 433.855556,63 C434.255556,62.4 434.522222,61.6666667 434.655556,60.8 C434.988889,60.3333333 435.355556,59.9333333 435.755556,59.6 C436.155556,59.2666667 436.555556,58.8666667 436.955556,58.4 C437.355556,57.0666667 437.938889,55.8166667 438.705556,54.65 C439.472222,53.4833333 439.988889,52.1333333 440.255556,50.6 C439.522222,50 438.705556,49.5833333 437.805556,49.35 C436.905556,49.1166667 436.022222,48.8666667 435.155556,48.6 C434.555556,49.1333333 434.088889,49.75 433.755556,50.45 C433.422222,51.15 433.088889,51.7666667 432.755556,52.3 C432.155556,53.5 431.422222,54.7 430.555556,55.9 C429.688889,57.1 428.788889,58.2833333 427.855556,59.45 C426.922222,60.6166667 425.972222,61.75 425.005556,62.85 C424.038889,63.95 423.155556,65 422.355556,66 C421.622222,66.8666667 420.938889,67.7 420.305556,68.5 C419.672222,69.3 418.888889,70.0666667 417.955556,70.8 C417.822222,70.5333333 417.688889,70.3666667 417.555556,70.3 C417.422222,70.2333333 417.355556,70.1333333 417.355556,70 C417.488889,68.6 417.588889,67.2166667 417.655556,65.85 C417.722222,64.4833333 417.888889,63.1333333 418.155556,61.8 C418.355556,60.7333333 418.505556,59.7666667 418.605556,58.9 C418.705556,58.0333333 418.822222,57.2 418.955556,56.4 C419.088889,55.6 419.272222,54.7666667 419.505556,53.9 C419.738889,53.0333333 420.055556,52.0666667 420.455556,51 C420.988889,49.6666667 421.438889,48.4 421.805556,47.2 C422.172222,46 422.322222,44.7666667 422.255556,43.5 C422.788889,42.7666667 423.338889,42.0666667 423.905556,41.4 C424.472222,40.7333333 424.988889,40.0666667 425.455556,39.4 C426.455556,39.7333333 427.422222,40.0666667 428.355556,40.4 L428.355556,40.4 L431.155556,41.4 C431.688889,41.2 431.988889,40.8166667 432.055556,40.25 C432.122222,39.6833333 432.422222,39.3 432.955556,39.1 C432.955556,38.3 433.005556,37.5666667 433.105556,36.9 C433.205556,36.2333333 433.238889,35.6333333 433.205556,35.1 C433.172222,34.5666667 433.022222,34.0333333 432.755556,33.5 C432.488889,32.9666667 432.022222,32.4 431.355556,31.8 C430.955556,31.6666667 430.472222,31.5333333 429.905556,31.4 C429.338889,31.2666667 428.688889,31.1333333 427.955556,31 C427.155556,30.8 426.355556,30.6333333 425.555556,30.5 C424.755556,30.3666667 423.988889,30.1333333 423.255556,29.8 C422.055556,29.4 420.855556,29.1833333 419.655556,29.15 C418.455556,29.1166667 417.288889,29.2333333 416.155556,29.5 C415.422222,30.0333333 414.822222,30.4666667 414.355556,30.8 C413.888889,31.1333333 413.488889,31.4833333 413.155556,31.85 C412.822222,32.2166667 412.505556,32.6166667 412.205556,33.05 C411.905556,33.4833333 411.588889,34.0333333 411.255556,34.7 C410.722222,35.7666667 410.205556,36.8666667 409.705556,38 C409.205556,39.1333333 408.722222,40.2666667 408.255556,41.4 C407.655556,43.3333333 407.172222,45.1166667 406.805556,46.75 C406.438889,48.3833333 406.138889,50.0166667 405.905556,51.65 C405.672222,53.2833333 405.488889,54.95 405.355556,56.65 C405.222222,58.35 405.155556,60.2333333 405.155556,62.3 C405.088889,63.4333333 405.122222,64.55 405.255556,65.65 C405.388889,66.75 405.622222,67.9 405.955556,69.1 C406.288889,71.0333333 406.922222,72.5833333 407.855556,73.75 C408.788889,74.9166667 410.022222,75.8 411.555556,76.4 C413.088889,77.1333333 414.622222,77.5166667 416.155556,77.55 Z M440.405556,77.8 C441.005556,77.6666667 441.572222,77.5333333 442.105556,77.4 C442.638889,77.2666667 443.172222,77.1 443.705556,76.9 C443.838889,75.6333333 443.972222,74.4666667 444.105556,73.4 C444.238889,72.3333333 444.405556,71.3 444.605556,70.3 C444.872222,69.1666667 445.055556,68.0166667 445.155556,66.85 C445.255556,65.6833333 445.472222,64.5333333 445.805556,63.4 C446.272222,61.9333333 446.622222,60.3833333 446.855556,58.75 C447.088889,57.1166667 447.372222,55.5 447.705556,53.9 C448.105556,52.1666667 448.455556,50.4833333 448.755556,48.85 C449.055556,47.2166667 449.438889,45.5333333 449.905556,43.8 C450.572222,41.4666667 451.172222,39.0833333 451.705556,36.65 C452.238889,34.2166667 452.805556,31.7666667 453.405556,29.3 C453.538889,28.7666667 453.672222,28.2666667 453.805556,27.8 L453.805556,27.8 L454.205556,26.4 C454.338889,26.0666667 454.522222,25.7166667 454.755556,25.35 C454.988889,24.9833333 455.205556,24.6333333 455.405556,24.3 C455.738889,24.3666667 456.038889,24.4166667 456.305556,24.45 C456.572222,24.4833333 456.872222,24.4666667 457.205556,24.4 C458.338889,24.2666667 459.438889,24.0833333 460.505556,23.85 C461.572222,23.6166667 462.672222,23.4 463.805556,23.2 C465.738889,22.8666667 467.638889,22.55 469.505556,22.25 C471.372222,21.95 473.272222,21.8 475.205556,21.8 C475.872222,21.8 476.522222,21.75 477.155556,21.65 C477.788889,21.55 478.472222,21.2333333 479.205556,20.7 C478.872222,19.5666667 478.405556,18.6 477.805556,17.8 C477.205556,17 476.572222,16.1666667 475.905556,15.3 C475.305556,15.3 474.688889,15.2833333 474.055556,15.25 C473.422222,15.2166667 472.805556,15.2333333 472.205556,15.3 C471.605556,15.3 471.005556,15.3166667 470.405556,15.35 C469.805556,15.3833333 469.172222,15.4333333 468.505556,15.5 C467.905556,15.5666667 467.338889,15.6166667 466.805556,15.65 C466.272222,15.6833333 465.672222,15.7333333 465.005556,15.8 C463.872222,16 462.638889,16.1 461.305556,16.1 C460.772222,16.1 460.222222,16.2333333 459.655556,16.5 C459.088889,16.7666667 458.472222,16.8 457.805556,16.6 C457.738889,15.8666667 457.688889,15.1666667 457.655556,14.5 C457.622222,13.8333333 457.605556,13.1666667 457.605556,12.5 C457.272222,12.1666667 456.988889,11.7833333 456.755556,11.35 C456.522222,10.9166667 456.238889,10.5666667 455.905556,10.3 C454.905556,9.43333333 453.888889,8.63333333 452.855556,7.9 C451.822222,7.16666667 450.838889,6.36666667 449.905556,5.5 C449.438889,5.83333333 449.072222,6.11666667 448.805556,6.35 C448.538889,6.58333333 448.322222,6.8 448.155556,7 C447.988889,7.2 447.838889,7.43333333 447.705556,7.7 L447.705556,7.7 L447.205556,8.7 C446.605556,10.0333333 446.038889,11.3166667 445.505556,12.55 C444.972222,13.7833333 444.405556,15.0666667 443.805556,16.4 C443.605556,16.9333333 443.405556,17.45 443.205556,17.95 C443.005556,18.45 442.772222,18.9666667 442.505556,19.5 C440.905556,19.8333333 439.322222,20.15 437.755556,20.45 C436.188889,20.75 434.638889,21.0666667 433.105556,21.4 C432.038889,21.7333333 430.988889,22.05 429.955556,22.35 C428.922222,22.65 427.872222,22.9666667 426.805556,23.3 C426.405556,23.5 426.022222,23.7833333 425.655556,24.15 C425.288889,24.5166667 425.105556,25.1 425.105556,25.9 C425.572222,26.9666667 426.138889,27.8666667 426.805556,28.6 C427.472222,29.3333333 428.172222,29.9666667 428.905556,30.5 C429.638889,30.6333333 430.322222,30.8 430.955556,31 C431.588889,31.2 432.272222,31.1333333 433.005556,30.8 C433.938889,30.3333333 434.872222,29.95 435.805556,29.65 C436.738889,29.35 437.672222,28.7666667 438.605556,27.9 C438.672222,27.8333333 438.755556,27.8166667 438.855556,27.85 C438.955556,27.8833333 439.105556,27.8666667 439.305556,27.8 C439.438889,27.9333333 439.555556,28.0833333 439.655556,28.25 C439.755556,28.4166667 439.872222,28.5666667 440.005556,28.7 L440.005556,28.7 L439.705556,30.5 C439.172222,33.0333333 438.622222,35.6 438.055556,38.2 C437.488889,40.8 437.005556,43.4 436.605556,46 C436.005556,49 435.538889,51.95 435.205556,54.85 C434.872222,57.75 434.538889,60.6666667 434.205556,63.6 C434.005556,65.4666667 433.972222,67.3 434.105556,69.1 C434.238889,70.9 434.405556,72.6666667 434.605556,74.4 C435.605556,75.1333333 436.588889,75.8 437.555556,76.4 C438.522222,77 439.472222,77.4666667 440.405556,77.8 Z" id="Let’sConect"></path>
            </g>
        </g>
    </g>
</svg>