<?xml version="1.0" encoding="UTF-8"?>
<svg width="206px" height="326px" viewBox="0 0 206 326" version="1.1" xmlns="http://www.w3.org/2000/svg" xmlns:xlink="http://www.w3.org/1999/xlink">
    <!-- Generator: Sketch 52.6 (67491) - http://www.bohemiancoding.com/sketch -->
    <title>Group 4</title>
    <desc>Created with Sketch.</desc>
    <defs>
        <linearGradient x1="100%" y1="50%" x2="0%" y2="50%" id="linearGradient-1">
            <stop stop-color="#CC066F" offset="0%"></stop>
            <stop stop-color="#791E97" offset="100%"></stop>
        </linearGradient>
        <linearGradient x1="19.3785864%" y1="19.8332668%" x2="83.0046635%" y2="95.8097887%" id="linearGradient-2">
            <stop stop-color="#F82E94" offset="0%"></stop>
            <stop stop-color="#FF9E33" offset="100%"></stop>
        </linearGradient>
    </defs>
    <g id="Page-1" stroke="none" stroke-width="1" fill="none" fill-rule="evenodd">
        <g id="01_Contact_Landingpage" transform="translate(0.000000, -71.000000)">
            <g id="Group-15" transform="translate(-108.000000, 20.000000)">
                <g id="Group-4" transform="translate(162.500000, 236.500000) scale(-1, 1) translate(-162.500000, -236.500000) ">
                    <path d="M247.346726,174.105008 C232.839047,179.578044 235.911261,235.049546 249.850012,295.138923 C244.615869,317.487154 238.016297,340.519515 230.278868,361.784541 C201.604866,440.68748 171.963686,465.373154 149.491006,457.22061 L149.434113,457.22061 C126.961433,448.954045 120.077397,410.927845 148.694506,332.081918 C175.604829,258.024896 225.670546,177.297612 248.257012,173.876965 C247.972548,173.933975 247.631191,174.047997 247.403619,174.105008 L247.346726,174.105008 Z M252.296405,174.219029 C266.804085,179.692066 263.674978,235.049546 249.850012,295.138923 C235.968154,235.049546 232.89594,179.578044 247.403619,174.105008 L247.460512,174.105008 C247.801869,174.047997 247.972548,173.933975 248.370798,173.876965 C249.736227,173.705932 251.044762,173.819954 252.239513,174.219029 L252.296405,174.219029 Z" id="Combined-Shape" fill="url(#linearGradient-1)" transform="translate(195.800000, 316.250000) scale(-1, 1) rotate(-150.000000) translate(-195.800000, -316.250000) "></path>
                    <path d="M67.4562512,143.456079 C67.4549791,143.461617 67.4537069,143.467154 67.4524346,143.472692 C67.3604788,143.074092 67.2689768,142.675686 67.1779304,142.277487 C66.8567779,140.911524 66.5409734,139.547394 66.2305655,138.185569 C66.2350075,138.166253 66.2394484,138.146938 66.2438881,138.127623 C52.7756882,77.3246405 50.1627743,22.3576438 64.8954861,16.7919298 L64.95495,16.7919298 C65.3117335,16.7322592 65.4901253,16.6129179 65.9063727,16.5532472 C67.3335068,16.3742353 68.7011769,16.4935766 69.9499192,16.9112711 L70.0093832,16.9112711 C71.0153137,17.2912908 71.9401175,17.9010932 72.7859127,18.7268806 C71.6318074,17.0883861 70.2898881,15.9545566 68.7521702,15.3783016 L68.7521702,15.3204283 L68.694861,15.3204283 C67.4913679,14.9153147 66.1732564,14.799568 64.625908,14.9731881 C83.5379431,10.9799263 129.213373,80.2543369 158.842228,151.727935 C158.827226,151.763113 158.812231,151.798292 158.797243,151.833475 C162.15058,159.709228 165.166711,167.697574 168.126318,175.571759 C196.895535,255.494867 190.018431,294.270018 167.381299,302.603782 L167.323989,302.603782 C166.636279,302.893148 165.948569,303.066768 165.203549,303.356135 C165.031621,303.356135 164.859694,303.414009 164.630457,303.414009 C164.171984,303.587629 163.770819,303.587629 163.255036,303.645502 C162.796563,303.703375 162.395398,303.819122 162.051543,303.876995 C161.650379,303.876995 161.363833,303.934869 160.962668,303.934869 C160.676122,304.050616 160.274958,304.050616 159.931103,304.108489 L158.498373,304.108489 L158.097209,304.108489 C156.664479,304.050616 155.346367,303.876995 153.799019,303.529755 L153.569782,303.529755 C153.053999,303.471882 152.480907,303.298262 151.965125,303.124642 C151.903215,303.105886 151.840636,303.087806 151.777533,303.070182 C151.326939,302.970077 150.83548,302.857132 150.303158,302.661655 L150.245849,302.661655 L150.303158,302.661655 C149.661614,302.423399 149.032737,302.161124 148.41697,301.87458 C148.652671,301.982291 148.890271,302.086412 149.129746,302.186958 C129.837526,294.893768 107.605535,265.838282 85.9449294,205.781652 C78.6490591,185.76075 72.4261756,164.410036 67.4562512,143.456079 Z" id="Combined-Shape" fill="url(#linearGradient-2)" transform="translate(121.039303, 159.458489) scale(-1, 1) rotate(-25.000000) translate(-121.039303, -159.458489) "></path>
                </g>
            </g>
        </g>
    </g>
</svg>