<?xml version="1.0" encoding="UTF-8"?>
<svg xmlns="http://www.w3.org/2000/svg" xmlns:xlink="http://www.w3.org/1999/xlink" width="100px" height="169px" viewBox="0 0 100 168" version="1.1">
<defs>
<linearGradient id="linear0" gradientUnits="userSpaceOnUse" x1="1" y1="0.5" x2="0" y2="0.5" gradientTransform="matrix(163.471529,-94.012833,-90.735201,-156.546036,78.094727,270.703263)">
<stop offset="0" style="stop-color:rgb(80%,2.352941%,43.529412%);stop-opacity:1;"/>
<stop offset="1" style="stop-color:rgb(47.45098%,11.764706%,59.215686%);stop-opacity:1;"/>
</linearGradient>
<linearGradient id="linear1" gradientUnits="userSpaceOnUse" x1="0.193786" y1="0.198333" x2="0.830047" y2="0.958098" gradientTransform="matrix(-165.68952,-76.961448,-77.476964,165.50293,190.403554,11.692149)">
<stop offset="0" style="stop-color:rgb(97.254902%,18.039216%,58.039216%);stop-opacity:1;"/>
<stop offset="1" style="stop-color:rgb(100%,61.960784%,20%);stop-opacity:1;"/>
</linearGradient>
</defs>
<g id="surface1">
<path style=" stroke:none;fill-rule:evenodd;fill:url(#linear0);" d="M 183.488281 207.683594 C 174.144531 209.210938 158.835938 179.058594 147.863281 143.167969 C 138.269531 132.988281 127.75 122.867188 117.167969 114.015625 C 77.914062 81.175781 54.707031 77.1875 45.3125 88.316406 L 45.28125 88.335938 C 35.921875 99.523438 43.890625 121.644531 83.09375 154.472656 C 119.933594 185.296875 171.050781 212.59375 184.039062 207.523438 C 183.871094 207.582031 183.65625 207.625 183.519531 207.664062 Z M 186.070312 206.117188 C 192.070312 198.820312 173.515625 170.617188 147.863281 143.167969 C 158.867188 179.042969 174.175781 209.195312 183.519531 207.664062 L 183.546875 207.648438 C 183.746094 207.574219 183.871094 207.582031 184.097656 207.492188 C 184.875 207.164062 185.53125 206.707031 186.039062 206.132812 Z M 186.070312 206.117188 "/>
<path style=" stroke:none;fill-rule:evenodd;fill:url(#linear1);" d="M 13.179688 124.628906 C 13.457031 124.691406 13.757812 124.753906 14.101562 124.785156 L 14.132812 124.796875 L 14.101562 124.785156 C 14.519531 124.816406 14.933594 124.832031 15.347656 124.835938 C 15.191406 124.832031 15.03125 124.828125 14.875 124.824219 C 27.433594 125.761719 47.234375 115.460938 74.714844 87.921875 C 84.691406 77.992188 94.375 66.878906 103.070312 55.730469 C 111.054688 18.464844 123.824219 -13.351562 133.363281 -12.613281 L 133.378906 -12.644531 L 133.410156 -12.628906 C 134.179688 -12.542969 134.9375 -12.269531 135.75 -11.773438 C 126.316406 -18.835938 83.164062 7.609375 48.324219 39.390625 C 48.324219 39.414062 48.324219 39.4375 48.324219 39.460938 C 44.433594 42.941406 40.703125 46.566406 37.035156 50.148438 C 0.492188 86.808594 -5.710938 109.949219 4.667969 120.363281 L 4.699219 120.375 C 5.003906 120.710938 5.339844 120.984375 5.679688 121.335938 C 5.773438 121.378906 5.851562 121.457031 5.980469 121.515625 C 6.1875 121.730469 6.410156 121.832031 6.679688 121.996094 C 6.921875 122.144531 7.113281 122.3125 7.289062 122.433594 C 7.507812 122.535156 7.652344 122.640625 7.875 122.746094 C 8.003906 122.882812 8.226562 122.984375 8.402344 123.105469 L 9.195312 123.472656 L 9.417969 123.578125 C 10.222656 123.914062 11 124.15625 11.945312 124.363281 L 12.070312 124.421875 C 12.371094 124.523438 12.734375 124.574219 13.0625 124.609375 C 13.101562 124.617188 13.140625 124.621094 13.179688 124.628906 Z M 133.316406 -11.898438 C 123.925781 -12.539062 111.179688 19.152344 103.066406 56.210938 C 126.378906 26.210938 142.558594 -3.964844 136.027344 -10.714844 L 135.996094 -10.730469 C 135.824219 -10.847656 135.761719 -10.957031 135.558594 -11.089844 C 134.855469 -11.53125 134.105469 -11.800781 133.347656 -11.882812 Z M 133.316406 -11.898438 "/>
</g>
</svg>
