<?xml version="1.0" encoding="UTF-8"?>
<svg xmlns="http://www.w3.org/2000/svg" xmlns:xlink="http://www.w3.org/1999/xlink" width="150px" height="237px" viewBox="0 0 150 237" version="1.1">
<defs>
<linearGradient id="linear0" gradientUnits="userSpaceOnUse" x1="1" y1="0.5" x2="0" y2="0.5" gradientTransform="matrix(-194.948716,-112.37416,108.206528,-187.120254,56.859375,338.926894)">
<stop offset="0" style="stop-color:rgb(80%,2.352941%,43.529412%);stop-opacity:1;"/>
<stop offset="1" style="stop-color:rgb(47.45098%,11.764706%,59.215686%);stop-opacity:1;"/>
</linearGradient>
<linearGradient id="linear1" gradientUnits="userSpaceOnUse" x1="0.193786" y1="0.198333" x2="0.830047" y2="0.958098" gradientTransform="matrix(196.801686,-91.623751,92.223155,197.457727,-76.039764,29.032231)">
<stop offset="0" style="stop-color:rgb(97.254902%,18.039216%,58.039216%);stop-opacity:1;"/>
<stop offset="1" style="stop-color:rgb(100%,61.960784%,20%);stop-opacity:1;"/>
</linearGradient>
</defs>
<g id="surface1">
<path style=" stroke:none;fill-rule:evenodd;fill:url(#linear0);" d="M -68.820312 263.59375 C -57.679688 265.417969 -39.421875 229.378906 -26.332031 186.480469 C -14.894531 174.3125 -2.347656 162.210938 10.273438 151.632812 C 57.082031 112.378906 84.761719 107.613281 95.964844 120.914062 L 96 120.933594 C 107.160156 134.308594 97.65625 160.75 50.90625 199.988281 C 6.972656 236.835938 -53.988281 269.460938 -69.476562 263.40625 C -69.277344 263.472656 -69.019531 263.523438 -68.855469 263.570312 Z M -71.898438 261.722656 C -79.054688 253 -56.929688 219.285156 -26.332031 186.480469 C -39.457031 229.359375 -57.714844 265.398438 -68.855469 263.570312 L -68.890625 263.550781 C -69.128906 263.460938 -69.277344 263.472656 -69.550781 263.363281 C -70.472656 262.972656 -71.257812 262.425781 -71.863281 261.742188 Z M -71.898438 261.722656 "/>
<path style=" stroke:none;fill-rule:evenodd;fill:url(#linear1);" d="M 29.589844 84.769531 C 29.589844 84.773438 29.589844 84.777344 29.589844 84.78125 C 29.40625 84.546875 29.226562 84.3125 29.042969 84.078125 C 28.410156 83.277344 27.78125 82.472656 27.15625 81.671875 C 27.15625 81.65625 27.152344 81.644531 27.148438 81.628906 C -0.449219 45.707031 -19.089844 10.292969 -11.078125 2.097656 L -11.039062 2.078125 C -10.824219 1.929688 -10.742188 1.796875 -10.484375 1.628906 C -9.597656 1.074219 -8.660156 0.730469 -7.707031 0.625 L -7.667969 0.605469 C -6.886719 0.546875 -6.089844 0.664062 -5.277344 0.949219 C -6.542969 0.222656 -7.777344 -0.109375 -8.96875 -0.0195312 L -8.988281 -0.0546875 L -9.023438 -0.0390625 C -9.945312 0.0625 -10.851562 0.394531 -11.816406 0.984375 C -0.566406 -7.457031 50.894531 24.152344 92.441406 62.140625 C 92.445312 62.167969 92.445312 62.195312 92.445312 62.222656 C 97.082031 66.382812 101.53125 70.71875 105.90625 75 C 149.488281 118.820312 156.882812 146.480469 144.507812 158.925781 L 144.46875 158.945312 C 144.105469 159.34375 143.703125 159.671875 143.300781 160.089844 C 143.1875 160.144531 143.09375 160.234375 142.941406 160.304688 C 142.691406 160.558594 142.425781 160.683594 142.105469 160.878906 C 141.820312 161.058594 141.589844 161.257812 141.382812 161.402344 C 141.117188 161.527344 140.945312 161.652344 140.679688 161.773438 C 140.527344 161.941406 140.261719 162.0625 140.054688 162.207031 L 139.109375 162.648438 L 138.84375 162.769531 C 137.878906 163.171875 136.957031 163.460938 135.828125 163.710938 L 135.675781 163.78125 C 135.320312 163.898438 134.886719 163.960938 134.492188 164.003906 C 134.449219 164.011719 134.402344 164.019531 134.351562 164.027344 C 134.023438 164.101562 133.667969 164.175781 133.253906 164.210938 L 133.21875 164.230469 L 133.253906 164.210938 C 132.757812 164.25 132.261719 164.273438 131.769531 164.273438 C 131.957031 164.269531 132.144531 164.265625 132.335938 164.257812 C 117.359375 165.382812 93.746094 153.066406 60.96875 120.152344 C 49.992188 109.203125 39.316406 97.046875 29.589844 84.769531 Z M 29.589844 84.769531 "/>
</g>
</svg>
