<svg version="1.2" baseProfile="tiny-ps" xmlns="http://www.w3.org/2000/svg" viewBox="0 0 224 266" width="224" height="266">
	<title>Page-1</title>
	<defs>
		<linearGradient id="grd1" gradientUnits="userSpaceOnUse"  x1="41332.672" y1="15566.782" x2="0.748" y2="15566.782">
			<stop offset="0" stop-color="#cc066f"  />
			<stop offset="100" stop-color="#791e97"  />
		</linearGradient>
		<linearGradient id="grd2" gradientUnits="userSpaceOnUse"  x1="7136.579" y1="7402.004" x2="30270.158" y2="35754.969">
			<stop offset="0" stop-color="#f82e94"  />
			<stop offset="100" stop-color="#ff9e33"  />
		</linearGradient>
	</defs>
	<style>
		tspan { white-space:pre }
		.shp0 { fill: url(#grd1) } 
		.shp1 { fill: url(#grd2) } 
	</style>
	<g id="Page-1">
		<g id="01_Contact_Landingpage">
			<g id="Group-15">
				<g id="Group-4">
					<path id="Combined-Shape" fill-rule="evenodd" class="shp0" d="M5.18 264.59C16.32 266.42 34.58 230.38 47.67 187.48C59.1 175.31 71.65 163.21 84.27 152.63C131.08 113.38 158.76 108.61 169.96 121.91L170 121.93C181.16 135.31 171.66 161.75 124.91 200.99C80.97 237.83 20.01 270.46 4.52 264.4C4.72 264.47 4.98 264.52 5.14 264.57L5.18 264.59ZM2.1 262.72C-5.06 254 17.07 220.29 47.67 187.48C34.54 230.36 16.28 266.4 5.14 264.57L5.11 264.55C4.87 264.46 4.72 264.47 4.45 264.36C3.53 263.97 2.74 263.43 2.14 262.74L2.1 262.72Z" />
					<path id="Combined-Shape" fill-rule="evenodd" class="shp1" d="M103.59 85.77C103.59 85.77 103.59 85.78 103.59 85.78C103.41 85.55 103.22 85.31 103.04 85.08C102.41 84.28 101.78 83.47 101.16 82.67C101.15 82.66 101.15 82.64 101.15 82.63C73.55 46.71 54.91 11.29 62.92 3.1L62.96 3.08C63.18 2.93 63.26 2.8 63.51 2.63C64.4 2.07 65.34 1.73 66.29 1.62L66.33 1.61C67.11 1.55 67.91 1.66 68.72 1.95C67.46 1.22 66.22 0.89 65.03 0.98L65.01 0.94L64.97 0.96C64.06 1.06 63.15 1.39 62.18 1.98C73.43 -6.46 124.89 25.15 166.44 63.14C166.44 63.17 166.44 63.2 166.45 63.22C171.08 67.38 175.53 71.72 179.91 76C223.49 119.82 230.88 147.48 218.51 159.93L218.47 159.94C218.1 160.35 217.7 160.67 217.3 161.09C217.19 161.14 217.09 161.23 216.94 161.31C216.69 161.56 216.43 161.68 216.1 161.88C215.82 162.06 215.59 162.26 215.38 162.4C215.12 162.53 214.95 162.65 214.68 162.78C214.53 162.94 214.26 163.06 214.05 163.21L213.11 163.65L212.84 163.77C211.88 164.17 210.96 164.46 209.83 164.71L209.68 164.78C209.32 164.9 208.89 164.96 208.49 165.01C208.45 165.01 208.4 165.02 208.35 165.03C208.03 165.1 207.67 165.18 207.25 165.21L207.22 165.23L207.25 165.21C206.76 165.25 206.26 165.27 205.77 165.27C205.96 165.27 206.15 165.27 206.33 165.26C191.36 166.38 167.75 154.07 134.97 121.15C123.99 110.2 113.32 98.05 103.59 85.77Z" />
				</g>
			</g>
		</g>
	</g>
</svg>